<svg version="1.2" xmlns="http://www.w3.org/2000/svg" viewBox="0 0 128 128" width="128" height="128">
	<title>instagram-svg</title>
	<style>
		.s0 { fill: #1b1717 } 
		.s1 { fill: #ffffff } 
	</style>
	<rect id="Layer" class="s0" y=".1" width="128" height="127.9" rx="12"></rect>
	<g id="Layer">
		<path id="Layer" fill-rule="evenodd" class="s1" d="m86 64c0 12.1-9.9 22-22 22-12.1 0-22-9.9-22-22 0-12.2 9.9-22 22-22 12.1 0 22 9.8 22 22zm-7.5 0c0-8-6.5-14.5-14.5-14.5-8 0-14.5 6.5-14.5 14.5 0 8 6.5 14.5 14.5 14.5 8 0 14.5-6.5 14.5-14.5z"/>
		<circle id="Layer" class="s1" cx="86.9" cy="41.1" r="5.1"/>
		<path id="Layer" fill-rule="evenodd" class="s1" d="m106.8 64c0 11.6 0 13.1-0.2 17.6-0.2 4.6-1 7.7-2 10.5-1.1 2.8-2.6 5.2-5 7.5-2.3 2.4-4.7 3.9-7.5 5-2.8 1-5.9 1.8-10.4 2-4.6 0.2-6.1 0.2-17.7 0.2-11.6 0-13.1 0-17.7-0.2-4.5-0.2-7.6-1-10.4-2-2.8-1.1-5.2-2.6-7.5-5-2.4-2.3-3.9-4.7-5-7.5-1-2.8-1.8-5.9-2-10.5-0.2-4.5-0.2-6-0.2-17.6 0-11.6 0-13.1 0.2-17.7 0.2-4.5 1-7.6 2-10.4 1.1-2.8 2.6-5.2 5-7.5 2.3-2.4 4.7-3.9 7.5-5 2.8-1 5.9-1.8 10.4-2 4.6-0.2 6.1-0.2 17.7-0.2 11.6 0 13.1 0 17.7 0.2 4.5 0.2 7.6 1 10.4 2 2.8 1.1 5.2 2.6 7.5 5 2.4 2.3 3.9 4.7 5 7.5 1 2.8 1.8 5.9 2 10.4 0.2 4.6 0.2 6.1 0.2 17.7zm-6.2 16.7c0.2-4.5 0.3-5.8 0.3-16.7 0-10.9-0.1-12.2-0.3-16.7-0.2-4.3-0.9-6.8-1.6-8.4-0.8-2.2-1.9-3.9-3.6-5.6-1.7-1.7-3.4-2.8-5.6-3.7-1.6-0.6-4.1-1.4-8.4-1.6-4.5-0.1-5.8-0.2-16.7-0.2-11 0-12.3 0.1-16.7 0.2-4.4 0.2-6.8 1-8.4 1.6-2.3 0.9-4 2-5.6 3.7-1.7 1.7-2.8 3.4-3.7 5.6-0.6 1.6-1.4 4-1.6 8.4-0.2 4.4-0.2 5.7-0.2 16.7 0 10.9 0 12.3 0.2 16.7 0.2 4.4 1 6.8 1.6 8.4 0.9 2.2 2 3.9 3.7 5.6 1.7 1.7 3.3 2.8 5.5 3.6 1.7 0.7 4.1 1.5 8.5 1.6 4.4 0.2 5.7 0.3 16.7 0.3 10.9 0 12.2-0.1 16.7-0.3 4.3-0.1 6.8-0.9 8.4-1.5 2.2-0.9 3.9-2 5.6-3.7 1.7-1.7 2.8-3.4 3.6-5.6 0.7-1.6 1.4-4.1 1.6-8.4z"/>
	</g>
</svg>