<svg version="1.2" xmlns="http://www.w3.org/2000/svg" viewBox="0 0 128 128" width="128" height="128">
	<title>twitter-svg</title>
	<style>
		.s0 { fill: #1b1717 } 
		.s1 { fill: #ffffff } 
	</style>
	<rect id="Layer" class="s0" y=".1" width="128" height="127.9" rx="12"></rect>
	<g id="Layer">
		<path id="Layer" class="s1" d="m24.5 88.8q1.9 0.2 3.9 0.2c7.6 0 14.6-2.5 20.1-6.9-7.1-0.1-13.1-4.8-15.1-11.3q1.4 0.3 3 0.3 2.2 0 4.3-0.5c-7.4-1.5-13-8.1-13-15.9q0-0.1 0-0.2c2.2 1.2 4.7 1.9 7.3 2-4.3-2.9-7.2-7.9-7.2-13.5 0-2.9 0.8-5.7 2.2-8.1 8 9.8 19.9 16.2 33.4 16.9q-0.4-1.8-0.4-3.7c0-8.9 7.2-16.2 16.2-16.2 4.7 0 8.9 2 11.8 5.1 3.7-0.7 7.2-2.1 10.3-3.9-1.2 3.8-3.8 6.9-7.1 9 3.3-0.4 6.4-1.3 9.3-2.6-2.2 3.3-4.9 6.1-8.1 8.4q0.1 1 0.1 2.1c0 21.4-16.3 46.1-46.2 46.1-9.1 0-17.6-2.7-24.8-7.3z"/>
	</g>
</svg>