<svg version="1.2" xmlns="http://www.w3.org/2000/svg" viewBox="0 0 128 128" width="128" height="128">
	<title>youtube-svg</title>
	<style>
		.s0 { fill: #1b1717 } 
		.s1 { fill: #ffffff } 
	</style>
	<rect id="Layer" class="s0" width="128" height="127.9" rx="12"></rect>
	<path id="Layer" fill-rule="evenodd" class="s1" d="m104.5 80.5c0 0-0.8 5.7-3.3 8.2-3.1 3.3-6.7 3.3-8.3 3.5-11.5 0.8-28.9 0.8-28.9 0.8 0 0-21.5-0.2-28.1-0.8-1.8-0.3-5.9-0.2-9.1-3.5-2.5-2.5-3.3-8.2-3.3-8.2 0 0-0.8-6.7-0.8-13.4v-6.2c0-6.7 0.8-13.4 0.8-13.4 0 0 0.8-5.7 3.3-8.2 3.2-3.3 6.7-3.3 8.3-3.5 11.5-0.8 28.9-0.8 28.9-0.8 0 0 17.4 0 28.9 0.8 1.6 0.2 5.2 0.2 8.3 3.5 2.5 2.5 3.3 8.2 3.3 8.2 0 0 0.8 6.7 0.8 13.4v6.2c0 6.7-0.8 13.4-0.8 13.4zm-26.7-17.3l-22.3-11.7v23.2z"/>
</svg>